<svg id="visual" viewBox="0 0 900 600" width="900" height="600" xmlns="http://www.w3.org/2000/svg" xmlns:xlink="http://www.w3.org/1999/xlink" version="1.1"><rect x="0" y="0" width="900" height="600" fill="#22252A"></rect><path d="M0 439L21.5 436.5C43 434 86 429 128.8 435.8C171.7 442.7 214.3 461.3 257.2 465.3C300 469.3 343 458.7 385.8 453.3C428.7 448 471.3 448 514.2 453.5C557 459 600 470 642.8 472.5C685.7 475 728.3 469 771.2 458.8C814 448.7 857 434.3 878.5 427.2L900 420L900 601L878.5 601C857 601 814 601 771.2 601C728.3 601 685.7 601 642.8 601C600 601 557 601 514.2 601C471.3 601 428.7 601 385.8 601C343 601 300 601 257.2 601C214.3 601 171.7 601 128.8 601C86 601 43 601 21.5 601L0 601Z" fill="#0066FF"></path></svg>