<svg id="visual" viewBox="0 0 900 600" width="900" height="600" xmlns="http://www.w3.org/2000/svg" xmlns:xlink="http://www.w3.org/1999/xlink" version="1.1"><rect x="0" y="0" width="900" height="600" fill="#0066FF"></rect><path d="M0 466L21.5 465C43 464 86 462 128.8 461C171.7 460 214.3 460 257.2 455.3C300 450.7 343 441.3 385.8 451.7C428.7 462 471.3 492 514.2 494.3C557 496.7 600 471.3 642.8 468.2C685.7 465 728.3 484 771.2 475.5C814 467 857 431 878.5 413L900 395L900 601L878.5 601C857 601 814 601 771.2 601C728.3 601 685.7 601 642.8 601C600 601 557 601 514.2 601C471.3 601 428.7 601 385.8 601C343 601 300 601 257.2 601C214.3 601 171.7 601 128.8 601C86 601 43 601 21.5 601L0 601Z" fill="#22252A"></path></svg>