<svg id="visual" viewBox="0 0 900 600" width="900" height="600" xmlns="http://www.w3.org/2000/svg" xmlns:xlink="http://www.w3.org/1999/xlink" version="1.1"><rect x="0" y="0" width="900" height="600" fill="#22252A"></rect><path d="M0 460L21.5 451.2C43 442.3 86 424.7 128.8 415.7C171.7 406.7 214.3 406.3 257.2 409C300 411.7 343 417.3 385.8 423.8C428.7 430.3 471.3 437.7 514.2 434.8C557 432 600 419 642.8 416.5C685.7 414 728.3 422 771.2 434C814 446 857 462 878.5 470L900 478L900 601L878.5 601C857 601 814 601 771.2 601C728.3 601 685.7 601 642.8 601C600 601 557 601 514.2 601C471.3 601 428.7 601 385.8 601C343 601 300 601 257.2 601C214.3 601 171.7 601 128.8 601C86 601 43 601 21.5 601L0 601Z" fill="#068fff"></path><path d="M0 459L21.5 457.5C43 456 86 453 128.8 450.8C171.7 448.7 214.3 447.3 257.2 450.3C300 453.3 343 460.7 385.8 467.3C428.7 474 471.3 480 514.2 475.8C557 471.7 600 457.3 642.8 453.2C685.7 449 728.3 455 771.2 459.3C814 463.7 857 466.3 878.5 467.7L900 469L900 601L878.5 601C857 601 814 601 771.2 601C728.3 601 685.7 601 642.8 601C600 601 557 601 514.2 601C471.3 601 428.7 601 385.8 601C343 601 300 601 257.2 601C214.3 601 171.7 601 128.8 601C86 601 43 601 21.5 601L0 601Z" fill="#0086ff"></path><path d="M0 473L21.5 473.2C43 473.3 86 473.7 128.8 474.3C171.7 475 214.3 476 257.2 480.5C300 485 343 493 385.8 494.3C428.7 495.7 471.3 490.3 514.2 488.7C557 487 600 489 642.8 488.7C685.7 488.3 728.3 485.7 771.2 486C814 486.3 857 489.7 878.5 491.3L900 493L900 601L878.5 601C857 601 814 601 771.2 601C728.3 601 685.7 601 642.8 601C600 601 557 601 514.2 601C471.3 601 428.7 601 385.8 601C343 601 300 601 257.2 601C214.3 601 171.7 601 128.8 601C86 601 43 601 21.5 601L0 601Z" fill="#007cff"></path><path d="M0 536L21.5 531.5C43 527 86 518 128.8 520.2C171.7 522.3 214.3 535.7 257.2 538.7C300 541.7 343 534.3 385.8 529.2C428.7 524 471.3 521 514.2 522C557 523 600 528 642.8 526.7C685.7 525.3 728.3 517.7 771.2 520.5C814 523.3 857 536.7 878.5 543.3L900 550L900 601L878.5 601C857 601 814 601 771.2 601C728.3 601 685.7 601 642.8 601C600 601 557 601 514.2 601C471.3 601 428.7 601 385.8 601C343 601 300 601 257.2 601C214.3 601 171.7 601 128.8 601C86 601 43 601 21.5 601L0 601Z" fill="#0071ff"></path><path d="M0 577L21.5 573.3C43 569.7 86 562.3 128.8 560.8C171.7 559.3 214.3 563.7 257.2 562C300 560.3 343 552.7 385.8 553.8C428.7 555 471.3 565 514.2 570.3C557 575.7 600 576.3 642.8 575.2C685.7 574 728.3 571 771.2 566.8C814 562.7 857 557.3 878.5 554.7L900 552L900 601L878.5 601C857 601 814 601 771.2 601C728.3 601 685.7 601 642.8 601C600 601 557 601 514.2 601C471.3 601 428.7 601 385.8 601C343 601 300 601 257.2 601C214.3 601 171.7 601 128.8 601C86 601 43 601 21.5 601L0 601Z" fill="#0066ff"></path></svg>