<svg id="visual" viewBox="0 0 900 600" width="900" height="600" xmlns="http://www.w3.org/2000/svg" xmlns:xlink="http://www.w3.org/1999/xlink" version="1.1"><rect x="0" y="0" width="900" height="600" fill="#0066FF"></rect><path d="M0 509L21.5 509C43 509 86 509 128.8 514C171.7 519 214.3 529 257.2 529.2C300 529.3 343 519.7 385.8 503.8C428.7 488 471.3 466 514.2 467C557 468 600 492 642.8 505.8C685.7 519.7 728.3 523.3 771.2 509.7C814 496 857 465 878.5 449.5L900 434L900 601L878.5 601C857 601 814 601 771.2 601C728.3 601 685.7 601 642.8 601C600 601 557 601 514.2 601C471.3 601 428.7 601 385.8 601C343 601 300 601 257.2 601C214.3 601 171.7 601 128.8 601C86 601 43 601 21.5 601L0 601Z" fill="#22252A" stroke-linecap="round" stroke-linejoin="miter"></path></svg>